<svg version="1.2" xmlns="http://www.w3.org/2000/svg" viewBox="0 0 204 298" width="204" height="298">
	<title>right-arrow-svgrepo-com-svg</title>
	<style>
		.s0 { fill: #000000 } 
	</style>
	<g id="Layer">
		<path id="Layer" class="s0" d="m54.3 29.7c-8.2 0-14.8-6.7-14.8-14.9 0-8.2 6.6-14.8 14.8-14.8 8.2 0 14.8 6.6 14.8 14.8 0 8.2-6.6 14.9-14.8 14.9z"/>
		<path id="Layer" class="s0" d="m98.3 74.6c-8.2 0-14.8-6.6-14.8-14.8 0-8.2 6.6-14.9 14.8-14.9 8.2 0 14.9 6.7 14.9 14.9 0 8.2-6.7 14.8-14.9 14.8z"/>
		<path id="Layer" class="s0" d="m98.3 251.7c-8.2 0-14.8-6.6-14.8-14.8 0-8.2 6.6-14.8 14.8-14.8 8.2 0 14.9 6.6 14.9 14.8 0 8.2-6.7 14.8-14.9 14.8z"/>
		<path id="Layer" class="s0" d="m144.2 118.6c-8.2 0-14.8-6.6-14.8-14.8 0-8.2 6.6-14.8 14.8-14.8 8.2 0 14.9 6.6 14.9 14.8 0 8.2-6.7 14.8-14.9 14.8z"/>
		<path id="Layer" class="s0" d="m144.2 207.6c-8.2 0-14.8-6.6-14.8-14.8 0-8.2 6.6-14.8 14.8-14.8 8.2 0 14.9 6.6 14.9 14.8 0 8.2-6.7 14.8-14.9 14.8z"/>
		<path id="Layer" class="s0" d="m54.3 297.6c-8.2 0-14.8-6.6-14.8-14.8 0-8.2 6.6-14.8 14.8-14.8 8.2 0 14.8 6.6 14.8 14.8 0 8.2-6.6 14.8-14.8 14.8z"/>
		<path id="Layer" class="s0" d="m188.3 162.7c-8.2 0-14.8-6.6-14.8-14.8 0-8.2 6.6-14.9 14.8-14.9 8.2 0 14.9 6.7 14.9 14.9 0 8.2-6.7 14.8-14.9 14.8z"/>
	</g>
	<g id="Layer">
	</g>
	<g id="Layer">
	</g>
	<g id="Layer">
	</g>
	<g id="Layer">
	</g>
	<g id="Layer">
	</g>
	<g id="Layer">
	</g>
	<g id="Layer">
	</g>
	<g id="Layer">
	</g>
	<g id="Layer">
	</g>
	<g id="Layer">
	</g>
	<g id="Layer">
	</g>
	<g id="Layer">
	</g>
	<g id="Layer">
	</g>
	<g id="Layer">
	</g>
	<g id="Layer">
	</g>
</svg>