<svg xmlns="http://www.w3.org/2000/svg" enable-background="new 0 0 32 32" viewBox="0 0 32 32"><path d="M8.293 24.707C8.4805 24.8945 8.7349 25 9 25h8c.2651 0 .5195-.1055.707-.293l9.5859-9.5859c.5664-.5664.8784-1.3198.8784-2.1211s-.312-1.5547-.8784-2.1211L21.1211 4.707c-1.1699-1.1699-3.0723-1.1699-4.2422 0L4.707 16.8789c-1.1699 1.1694-1.1699 3.0728 0 4.2422L8.293 24.707zM18.293 6.1211c.3779-.377 1.0361-.377 1.4141 0l6.1719 6.1719c.3896.3896.3896 1.0239 0 1.4141L24 15.5859 16.4141 8 18.293 6.1211zM6.1211 18.293L11 13.4141 18.5859 21l-2 2H9.4141l-3.293-3.293C5.7314 19.3169 5.7314 18.6826 6.1211 18.293zM27.5 27h-23C4.2239 27 4 27.2239 4 27.5v1C4 28.7761 4.2239 29 4.5 29h23c.2761 0 .5-.2239.5-.5v-1C28 27.2239 27.7761 27 27.5 27z"/></svg>