<svg xmlns="http://www.w3.org/2000/svg" width="16" height="16"><g fill-opacity=".996"><path fill="#5c7284" d="M9.715 6.627c-.172.257-.258.63-.258 1.12 0 .488.086.86.258 1.117.171.257.42.386.744.386.325 0 .573-.129.745-.386.172-.257.257-.63.257-1.117 0-.49-.085-.863-.257-1.12-.172-.257-.42-.385-.745-.385s-.573.128-.744.385m1.202.223c.101.199.152.498.152.897 0 .397-.05.695-.152.894-.102.198-.254.298-.458.298-.201 0-.353-.1-.455-.298-.102-.199-.153-.497-.153-.894 0-.4.051-.698.153-.897.102-.198.254-.297.455-.297.204 0 .356.099.458.297m-3.733-.223c-.171.257-.258.63-.258 1.12 0 .488.087.86.258 1.117.172.257.42.386.745.386s.573-.129.745-.386c.171-.257.257-.63.257-1.117 0-.49-.086-.863-.257-1.12-.172-.257-.42-.385-.745-.385s-.573.128-.745.385m1.202.223c.102.199.153.498.153.897 0 .397-.051.695-.153.894-.101.198-.254.298-.457.298-.202 0-.354-.1-.456-.298-.101-.199-.152-.497-.152-.894 0-.4.051-.698.152-.897.102-.198.254-.297.456-.297.203 0 .356.099.457.297M4.627 9.194h1.67v-.33h-.64v-2.57h-.393l-.693.14v.357l.698-.14v2.212h-.642v.33z"/><path fill="#596f84" d="M7.364 14.364a.636.636 0 1 0 1.272 0 .636.636 0 0 0-1.272 0m-2.387-.728a.636.636 0 1 0 1.175.488.636.636 0 0 0-1.175-.488M3.051 12.05a.637.637 0 1 0 .9.9.637.637 0 0 0-.9-.9M1.877 9.847a.637.637 0 1 0 .49 1.176.637.637 0 0 0-.49-1.176M1 8.001a.636.636 0 1 0 1.272 0A.636.636 0 0 0 1 8m.533-2.68a.637.637 0 1 0 1.177.488.637.637 0 0 0-1.177-.488m1.518-2.27a.636.636 0 1 0 .898.9.636.636 0 0 0-.898-.9m2.27-1.518A.635.635 0 1 0 5.81 2.71a.636.636 0 1 0-.488-1.176m2.043.104a.636.636 0 1 0 1.272 0 .636.636 0 0 0-1.272 0m2.483.24a.636.636 0 1 0 1.176.49.636.636 0 0 0-1.176-.49m2.203 1.174a.637.637 0 1 0 .902.9.637.637 0 0 0-.902-.9m1.586 1.926a.636.636 0 1 0 .486 1.176.636.636 0 0 0-.486-1.176m.091 3.024A.636.636 0 1 0 15 8 .636.636 0 0 0 13.727 8m-.436 2.191a.635.635 0 0 0 .345.831.637.637 0 1 0-.344-.83M12.05 12.05a.638.638 0 0 0 0 .9.64.64 0 0 0 .9 0 .637.637 0 0 0-.9-.9m-1.858 1.241a.638.638 0 0 0 .487 1.177.637.637 0 0 0-.487-1.177"/></g></svg>