<svg xmlns="http://www.w3.org/2000/svg" width="16" height="16"><path d="M8 .5c-.822 0-1.5.677-1.5 1.5h-1a.5.5 0 0 0-.5.5V3H3.5a.5.5 0 0 0-.5.5v11a.5.5 0 0 0 .5.5h9a.5.5 0 0 0 .5-.5v-11a.5.5 0 0 0-.5-.5H11v-.5a.5.5 0 0 0-.5-.5h-1C9.5 1.177 8.822.5 8 .5zm0 1c.282 0 .5.218.5.5v.5A.5.5 0 0 0 9 3h1v1H6V3h1a.5.5 0 0 0 .5-.5V2c0-.282.218-.5.5-.5zM4 4h1v.5a.5.5 0 0 0 .5.5h5a.5.5 0 0 0 .5-.5V4h1v10H4V4zm1.5 2a.5.5 0 0 0-.5.5.5.5 0 0 0 .5.5.5.5 0 0 0 .5-.5.5.5 0 0 0-.5-.5zM7 6v1h4V6H7zM5.5 8a.5.5 0 0 0-.5.5.5.5 0 0 0 .5.5.5.5 0 0 0 .5-.5.5.5 0 0 0-.5-.5zM7 8v1h4V8H7zm-1.5 2a.5.5 0 0 0-.5.5.5.5 0 0 0 .5.5.5.5 0 0 0 .5-.5.5.5 0 0 0-.5-.5zM7 10v1h4v-1H7zm-1.5 2a.5.5 0 0 0-.5.5.5.5 0 0 0 .5.5.5.5 0 0 0 .5-.5.5.5 0 0 0-.5-.5zM7 12v1h4v-1H7z" color="#000" font-family="sans-serif" font-weight="400" overflow="visible" style="line-height:normal;text-indent:0;text-align:start;text-decoration-line:none;text-decoration-style:solid;text-decoration-color:#000;text-transform:none;block-progression:tb;white-space:normal;isolation:auto;mix-blend-mode:normal;solid-color:#000;solid-opacity:1"/></svg>