<svg xmlns="http://www.w3.org/2000/svg" width="24" height="24"><path d="M20 24H4c-2.2 0-4-1.8-4-4V4c0-2.2 1.8-4 4-4h16c2.2 0 4 1.8 4 4v16c0 2.2-1.8 4-4 4zM4 2c-1.1 0-2 .9-2 2v16c0 1.1.9 2 2 2h16c1.1 0 2-.9 2-2V4c0-1.1-.9-2-2-2H4z"/><path d="M17 8H7c-.6 0-1-.4-1-1s.4-1 1-1h10c.6 0 1 .4 1 1s-.4 1-1 1z"/><path d="M7 9c-.6 0-1-.4-1-1V7c0-.6.4-1 1-1s1 .4 1 1v1c0 .6-.4 1-1 1zm10 0c-.6 0-1-.4-1-1V7c0-.6.4-1 1-1s1 .4 1 1v1c0 .6-.4 1-1 1zm-5 9c-.6 0-1-.4-1-1V7c0-.6.4-1 1-1s1 .4 1 1v10c0 .6-.4 1-1 1z"/><path d="M13 18h-2c-.6 0-1-.4-1-1s.4-1 1-1h2c.6 0 1 .4 1 1s-.4 1-1 1z"/></svg>